<mxfile host="65bd71144e">
    <diagram id="J0BU5uh6VnGHpy-MeXnG" name="Page-1">
        <mxGraphModel dx="1754" dy="569" grid="1" gridSize="10" guides="1" tooltips="1" connect="1" arrows="1" fold="1" page="1" pageScale="1" pageWidth="827" pageHeight="1169" math="0" shadow="0">
            <root>
                <mxCell id="0"/>
                <mxCell id="1" parent="0"/>
                <mxCell id="2" value="11" style="ellipse;shape=doubleEllipse;whiteSpace=wrap;html=1;aspect=fixed;" parent="1" vertex="1">
                    <mxGeometry x="-28.84" y="200" width="80" height="80" as="geometry"/>
                </mxCell>
                <mxCell id="3" value="3" style="ellipse;shape=doubleEllipse;whiteSpace=wrap;html=1;aspect=fixed;" parent="1" vertex="1">
                    <mxGeometry x="150" y="200" width="80" height="80" as="geometry"/>
                </mxCell>
                <mxCell id="4" value="7" style="ellipse;shape=doubleEllipse;whiteSpace=wrap;html=1;aspect=fixed;" parent="1" vertex="1">
                    <mxGeometry x="310" y="200" width="80" height="80" as="geometry"/>
                </mxCell>
                <mxCell id="5" value="next" style="shape=singleArrow;whiteSpace=wrap;html=1;rotation=-180;" parent="1" vertex="1">
                    <mxGeometry x="230" y="220" width="80" height="40" as="geometry"/>
                </mxCell>
                <mxCell id="6" value="next" style="shape=singleArrow;whiteSpace=wrap;html=1;rotation=-180;" parent="1" vertex="1">
                    <mxGeometry x="-130" y="210" width="103.91" height="40" as="geometry"/>
                </mxCell>
                <mxCell id="7" value="next" style="shape=singleArrow;whiteSpace=wrap;html=1;rotation=-180;" parent="1" vertex="1">
                    <mxGeometry x="65.44999999999999" y="220" width="80" height="40" as="geometry"/>
                </mxCell>
                <mxCell id="8" value="head" style="shape=singleArrow;direction=south;whiteSpace=wrap;html=1;" parent="1" vertex="1">
                    <mxGeometry x="310" y="150" width="30" height="60" as="geometry"/>
                </mxCell>
                <mxCell id="9" value="tail" style="shape=singleArrow;direction=south;whiteSpace=wrap;html=1;" parent="1" vertex="1">
                    <mxGeometry x="-160" y="130" width="30" height="60" as="geometry"/>
                </mxCell>
                <mxCell id="16" value="unshift(value)" style="shape=singleArrow;whiteSpace=wrap;html=1;" parent="1" vertex="1">
                    <mxGeometry x="-70" y="490" width="100" height="60" as="geometry"/>
                </mxCell>
                <mxCell id="17" value="shift()" style="shape=singleArrow;direction=west;whiteSpace=wrap;html=1;" parent="1" vertex="1">
                    <mxGeometry x="-80" y="410" width="100" height="60" as="geometry"/>
                </mxCell>
                <mxCell id="18" value="22" style="ellipse;shape=doubleEllipse;whiteSpace=wrap;html=1;aspect=fixed;" parent="1" vertex="1">
                    <mxGeometry x="-185" y="190" width="80" height="80" as="geometry"/>
                </mxCell>
                <mxCell id="20" value="next" style="shape=singleArrow;whiteSpace=wrap;html=1;rotation=-180;" parent="1" vertex="1">
                    <mxGeometry x="-265" y="210" width="80" height="40" as="geometry"/>
                </mxCell>
                <mxCell id="23" value="temp" style="shape=singleArrow;direction=north;whiteSpace=wrap;html=1;" parent="1" vertex="1">
                    <mxGeometry x="575" y="240" width="30" height="80" as="geometry"/>
                </mxCell>
                <mxCell id="36" value="pop(value)" style="shape=singleArrow;direction=west;whiteSpace=wrap;html=1;" parent="1" vertex="1">
                    <mxGeometry x="400" y="400" width="100" height="60" as="geometry"/>
                </mxCell>
                <mxCell id="37" value="pop()" style="shape=singleArrow;whiteSpace=wrap;html=1;" parent="1" vertex="1">
                    <mxGeometry x="410" y="320" width="100" height="60" as="geometry"/>
                </mxCell>
                <mxCell id="38" value="&lt;font style=&quot;font-size: 18px&quot;&gt;47&lt;/font&gt;" style="ellipse;whiteSpace=wrap;html=1;aspect=fixed;" parent="1" vertex="1">
                    <mxGeometry x="160" y="600" width="80" height="80" as="geometry"/>
                </mxCell>
                <mxCell id="39" value="76" style="ellipse;whiteSpace=wrap;html=1;aspect=fixed;" parent="1" vertex="1">
                    <mxGeometry x="280" y="720" width="80" height="80" as="geometry"/>
                </mxCell>
                <mxCell id="40" value="&lt;font style=&quot;font-size: 18px&quot;&gt;21&lt;/font&gt;" style="ellipse;whiteSpace=wrap;html=1;aspect=fixed;" parent="1" vertex="1">
                    <mxGeometry x="40" y="720" width="80" height="80" as="geometry"/>
                </mxCell>
                <mxCell id="41" value="&lt;font style=&quot;font-size: 18px&quot;&gt;82&lt;/font&gt;" style="ellipse;whiteSpace=wrap;html=1;aspect=fixed;" parent="1" vertex="1">
                    <mxGeometry x="360" y="840" width="80" height="80" as="geometry"/>
                </mxCell>
                <mxCell id="42" value="&lt;font style=&quot;font-size: 18px&quot;&gt;52&lt;/font&gt;" style="ellipse;whiteSpace=wrap;html=1;aspect=fixed;" parent="1" vertex="1">
                    <mxGeometry x="200" y="840" width="80" height="80" as="geometry"/>
                </mxCell>
                <mxCell id="43" value="&lt;font style=&quot;font-size: 18px&quot;&gt;27&lt;/font&gt;" style="ellipse;whiteSpace=wrap;html=1;aspect=fixed;" parent="1" vertex="1">
                    <mxGeometry x="110" y="840" width="80" height="80" as="geometry"/>
                </mxCell>
                <mxCell id="44" value="&lt;font style=&quot;font-size: 18px&quot;&gt;18&lt;/font&gt;" style="ellipse;whiteSpace=wrap;html=1;aspect=fixed;" parent="1" vertex="1">
                    <mxGeometry x="-40" y="840" width="80" height="80" as="geometry"/>
                </mxCell>
                <mxCell id="45" value="" style="shape=singleArrow;direction=south;whiteSpace=wrap;html=1;rotation=30;" parent="1" vertex="1">
                    <mxGeometry x="265.04" y="788.67" width="28.66" height="67.99" as="geometry"/>
                </mxCell>
                <mxCell id="46" value="" style="shape=singleArrow;direction=south;whiteSpace=wrap;html=1;rotation=40;" parent="1" vertex="1">
                    <mxGeometry x="116.79" y="648.83" width="28.66" height="90" as="geometry"/>
                </mxCell>
                <mxCell id="47" value="" style="shape=singleArrow;direction=south;whiteSpace=wrap;html=1;rotation=30;" parent="1" vertex="1">
                    <mxGeometry x="22.5" y="787.99" width="28.66" height="70" as="geometry"/>
                </mxCell>
                <mxCell id="48" value="" style="shape=singleArrow;direction=south;whiteSpace=wrap;html=1;rotation=-45;" parent="1" vertex="1">
                    <mxGeometry x="248.65" y="645.74" width="31.35" height="96.17" as="geometry"/>
                </mxCell>
                <mxCell id="50" value="" style="shape=singleArrow;direction=south;whiteSpace=wrap;html=1;rotation=-30;arrowWidth=0.43163050774708744;arrowSize=0.16050179807502;" parent="1" vertex="1">
                    <mxGeometry x="110" y="787.15" width="22.09" height="63.54" as="geometry"/>
                </mxCell>
                <mxCell id="51" value="" style="shape=singleArrow;direction=south;whiteSpace=wrap;html=1;rotation=-45;" parent="1" vertex="1">
                    <mxGeometry x="340" y="787.15" width="31.35" height="69.51" as="geometry"/>
                </mxCell>
                <mxCell id="52" value="Binary Search Tree" style="text;html=1;align=center;verticalAlign=middle;resizable=0;points=[];autosize=1;strokeColor=none;fillColor=none;fontSize=18;" parent="1" vertex="1">
                    <mxGeometry x="355" y="635" width="170" height="30" as="geometry"/>
                </mxCell>
                <mxCell id="53" value="Linked List" style="text;html=1;align=center;verticalAlign=middle;resizable=0;points=[];autosize=1;strokeColor=none;fillColor=none;fontSize=18;" parent="1" vertex="1">
                    <mxGeometry x="433.21" width="100" height="30" as="geometry"/>
                </mxCell>
                <mxCell id="54" value="index = 2" style="text;html=1;align=center;verticalAlign=middle;resizable=0;points=[];autosize=1;strokeColor=none;fillColor=none;" vertex="1" parent="1">
                    <mxGeometry x="160" y="360" width="60" height="20" as="geometry"/>
                </mxCell>
                <mxCell id="55" value="value = &quot;komal&quot;" style="text;html=1;align=center;verticalAlign=middle;resizable=0;points=[];autosize=1;strokeColor=none;fillColor=none;" vertex="1" parent="1">
                    <mxGeometry x="120" y="390" width="100" height="20" as="geometry"/>
                </mxCell>
                <mxCell id="56" value="null" style="text;html=1;align=center;verticalAlign=middle;resizable=0;points=[];autosize=1;strokeColor=none;fillColor=none;" vertex="1" parent="1">
                    <mxGeometry x="575" y="230" width="30" height="20" as="geometry"/>
                </mxCell>
                <mxCell id="57" value="remove(2,&quot;komal&quot;)" style="text;html=1;align=center;verticalAlign=middle;resizable=0;points=[];autosize=1;strokeColor=none;fillColor=none;" vertex="1" parent="1">
                    <mxGeometry x="115" y="420" width="110" height="20" as="geometry"/>
                </mxCell>
                <mxCell id="58" value="&quot;komal&quot;" style="ellipse;shape=doubleEllipse;whiteSpace=wrap;html=1;aspect=fixed;" vertex="1" parent="1">
                    <mxGeometry x="410" y="5" width="80" height="80" as="geometry"/>
                </mxCell>
                <mxCell id="59" value="next" style="shape=singleArrow;whiteSpace=wrap;html=1;rotation=0;arrowWidth=0.3244804382324219;arrowSize=0.14232971884987572;" vertex="1" parent="1">
                    <mxGeometry x="483.21" y="25" width="55" height="40" as="geometry"/>
                </mxCell>
                <mxCell id="61" value="next" style="shape=singleArrow;direction=south;whiteSpace=wrap;html=1;" vertex="1" parent="1">
                    <mxGeometry x="570" y="170" width="30" height="60" as="geometry"/>
                </mxCell>
                <mxCell id="73" value="prev" style="shape=singleArrow;direction=south;whiteSpace=wrap;html=1;" vertex="1" parent="1">
                    <mxGeometry x="340" y="150" width="30" height="60" as="geometry"/>
                </mxCell>
                <mxCell id="76" value="null" style="text;html=1;align=center;verticalAlign=middle;resizable=0;points=[];autosize=1;strokeColor=none;fillColor=none;" vertex="1" parent="1">
                    <mxGeometry x="-295" y="220" width="30" height="20" as="geometry"/>
                </mxCell>
            </root>
        </mxGraphModel>
    </diagram>
</mxfile>